<svg xmlns="http://www.w3.org/2000/svg" xmlns:xlink="http://www.w3.org/1999/xlink" width="55" zoomAndPan="magnify" viewBox="0 0 41.25 41.250001" height="55" preserveAspectRatio="xMidYMid meet" version="1.0"><defs><clipPath id="id1"><path d="M 0 0 L 40.511719 0 L 40.511719 40.511719 L 0 40.511719 Z M 0 0 " clip-rule="nonzero"/></clipPath></defs><g clip-path="url(#id1)"><path fill="#ff2759" d="M 4.402344 20.257812 L 9.121094 24.976562 L 6.917969 27.175781 L 0 20.257812 L 6.886719 13.367188 L 9.089844 15.570312 Z M 20.257812 4.402344 L 27.238281 11.386719 L 24.722656 13.902344 L 20.257812 9.4375 L 18.085938 11.605469 L 24.753906 18.273438 L 31.644531 11.386719 L 20.257812 0 L 9.089844 11.167969 L 27.269531 29.347656 L 20.382812 36.234375 L 13.585938 29.441406 L 16.105469 26.925781 L 20.414062 31.234375 L 22.582031 29.0625 L 16.074219 22.554688 L 9.183594 29.441406 L 20.257812 40.511719 L 31.421875 29.347656 L 13.367188 11.292969 Z M 11.605469 18.085938 L 9.4375 20.257812 L 11.636719 22.457031 L 13.808594 20.289062 Z M 29.0625 22.585938 L 31.234375 20.414062 L 29.03125 18.210938 L 26.863281 20.382812 Z M 33.75 13.496094 L 31.550781 15.695312 L 36.234375 20.382812 L 31.550781 25.070312 L 33.625 27.144531 L 40.515625 20.257812 Z M 33.75 13.496094 " fill-opacity="1" fill-rule="nonzero"/></g></svg>